<svg width="66" height="51" viewBox="0 0 66 51" fill="none" xmlns="http://www.w3.org/2000/svg">
<path d="M5.30316 31.3783L17.7756 38.4788L30.2439 31.3783V25.0959H28.6046V30.5629L18.5911 36.2639V25.4716L22.143 27.3095L35.547 20.3779L24.3547 14.8013L17.7687 11.5184L0 20.3779L5.30316 23.1212V31.3783ZM6.94247 23.9687L13.4013 27.3095L16.9532 25.4716V36.2639L6.93974 30.5629L6.94247 23.9687ZM22.1498 25.6059L19.4176 24.1954L29.431 19.0216L32.2069 20.405L22.1498 25.6059ZM21.8766 15.2484L23.5391 16.0775L27.763 18.1827L17.781 23.3442L7.79901 18.1827L17.7756 13.2134L21.8766 15.2484ZM6.11462 19.0191L16.1281 24.1929L13.3959 25.6034L3.34009 20.4013L6.11462 19.0191Z" fill="#3FC35F"/>
<path d="M60.063 0H20.4833V10.3747H22.1226V1.47823H58.4237V44.1276H30.203V44.8668C30.2129 45.3508 30.1157 45.8318 29.9171 46.2816C29.7185 46.7314 29.4224 47.1411 29.0463 47.4865C28.6701 47.832 28.2214 48.1064 27.7263 48.2938C27.2312 48.4811 26.6997 48.5776 26.1628 48.5776C25.6259 48.5776 25.0944 48.4811 24.5993 48.2938C24.1042 48.1064 23.6555 47.832 23.2793 47.4865C22.9032 47.1411 22.6071 46.7314 22.4085 46.2816C22.2099 45.8318 22.1127 45.3508 22.1226 44.8668V39.9566H20.4833V44.8668C20.4898 46.2167 21.0757 47.512 22.1181 48.4809C23.1605 49.4498 24.5785 50.0172 26.0747 50.064H60.186C61.7142 50.0623 63.1794 49.5143 64.2604 48.5401C65.3413 47.5658 65.9497 46.2449 65.9522 44.8668V44.1276H60.063V0ZM60.186 48.5894H30.0978C31.0102 47.7902 31.6034 46.7411 31.7849 45.6059H64.2323C64.0417 46.4472 63.5351 47.2034 62.7979 47.747C62.0608 48.2905 61.1382 48.5881 60.186 48.5894Z" fill="#3FC35F"/>
<path d="M54.8184 34.1005H32.6877V35.5321H54.8184V34.1005Z" fill="#3FC35F"/>
<path d="M54.8101 38.3171H32.6794V39.7486H54.8101V38.3171Z" fill="#3FC35F"/>
<path d="M54.8987 25.9911H42.9454V27.4227H54.8987V25.9911Z" fill="#3FC35F"/>
<path d="M54.8105 29.8702H42.8572V31.3018H54.8105V29.8702Z" fill="#3FC35F"/>
<path d="M49.6863 11.8926L51.0455 12.7167L52.1712 11.2089C52.6046 12.5624 52.5269 14.0074 51.9503 15.3168C51.3736 16.6261 50.3308 17.7255 48.9857 18.4421C47.6406 19.1587 46.0695 19.4519 44.5195 19.2756C42.9695 19.0993 41.5284 18.4634 40.4228 17.468L39.2603 18.5101C40.6211 19.7368 42.3952 20.5212 44.304 20.7402C46.2128 20.9593 48.1482 20.6006 49.8064 19.7204C51.4646 18.8403 52.7518 17.4885 53.4659 15.8773C54.18 14.2661 54.2805 12.4867 53.7517 10.8184L55.5509 11.9099L56.4662 10.678L52.4157 8.22168L49.6863 11.8926Z" fill="#3FC35F"/>
<path d="M40.3384 13.0542L38.9723 12.2288L37.848 13.7366C37.4146 12.3831 37.4923 10.9381 38.0689 9.62877C38.6456 8.31943 39.6884 7.22003 41.0335 6.50342C42.3786 5.7868 43.9497 5.49362 45.4997 5.66995C47.0497 5.84629 48.4908 6.48215 49.5964 7.47756L50.7548 6.43295C49.3943 5.20609 47.6203 4.42144 45.7116 4.20219C43.8029 3.98294 41.8675 4.34151 40.2093 5.22159C38.5511 6.10168 37.2639 7.45345 36.55 9.06465C35.836 10.6758 35.7357 12.4552 36.2647 14.1234L34.4792 13.032L33.564 14.2639L37.6144 16.7202L40.3384 13.0542Z" fill="#3FC35F"/>
</svg>
