<svg width="45" height="50" viewBox="0 0 45 50" fill="none" xmlns="http://www.w3.org/2000/svg">
<path fill-rule="evenodd" clip-rule="evenodd" d="M18.7502 49.8429C16.3214 49.8429 14.5727 49.1129 14.4431 49.0545L5.34327 45.0538C4.95466 44.8786 4.79274 44.4406 4.98704 44.1194C5.18135 43.7398 5.66711 43.6229 6.02333 43.7982L15.0908 47.7988C15.0908 47.7988 18.5559 49.2297 22.2153 47.7988C31.1532 43.7106 40.8684 38.8923 41.5808 37.8702C41.6456 37.841 41.6456 37.7826 41.678 37.7534C42.7142 36.6145 42.8438 35.5048 42.1313 34.7164C41.3541 33.8695 39.6702 33.4607 37.9538 34.2492L24.806 40.9948C24.6764 41.0824 24.5469 41.1116 24.4497 41.1992C23.6402 41.608 23.5106 41.608 22.3772 41.608H20.6285C20.0132 41.608 19.3655 41.3452 18.9769 40.9948C18.6207 40.6736 18.4911 40.2355 18.5235 39.7683C18.653 38.8338 19.5598 38.2498 20.758 38.1622C20.9847 38.1622 21.1142 38.1622 21.2114 38.1622C21.5028 38.1622 21.5028 38.1622 22.0857 38.0454C25.8099 37.1109 26.6195 36.2057 26.8462 35.8553C27.0081 35.4756 27.2024 34.9792 26.8462 34.7164C26.6195 34.512 26.0366 34.6288 25.1298 34.8332C23.543 35.1544 21.438 35.6508 19.0093 34.1908C17.4548 33.1979 14.346 31.621 11.3343 31.7962H11.2695H5.69949C5.24612 31.7962 4.88989 31.475 4.88989 31.0662C4.88989 30.6573 5.24612 30.3361 5.69949 30.3361H11.2371C14.7346 30.1317 18.1673 31.913 19.8836 32.9643C21.7295 34.1032 23.3487 33.7235 24.7412 33.4023C25.8423 33.1687 27.0081 32.9351 27.9148 33.6651C28.271 33.9863 29.0483 34.9208 28.2387 36.4393C27.591 37.5782 25.7127 38.571 22.4743 39.3595C21.7943 39.5639 21.6647 39.5639 21.2114 39.5639C21.1142 39.5639 20.9847 39.5639 20.8551 39.5639C20.8228 39.5639 20.1751 39.6223 20.1427 39.9435C20.1427 39.9435 20.1427 39.9727 20.1751 40.0603C20.2722 40.1479 20.4989 40.2355 20.6932 40.2355H22.3772C23.1868 40.2355 23.1868 40.2355 23.6402 39.9727C23.7373 39.9435 23.8668 39.8559 23.9964 39.7683L37.2414 32.9643C39.3787 31.913 42.0018 32.2342 43.3943 33.7235C44.3334 34.7748 44.7544 36.5853 42.9733 38.571C41.5484 40.4691 27.3319 47.0396 22.9601 49.0545H22.9277C21.4057 49.6385 20.0132 49.8429 18.7502 49.8429Z" fill="#3FC35F"/>
<path fill-rule="evenodd" clip-rule="evenodd" d="M4.66328 47.5941H1.84588C0.809597 47.5941 0 46.8641 0 45.9296V29.5474C0 28.613 0.841981 27.8829 1.84588 27.8829H4.66328C5.69956 27.8829 6.50916 28.6714 6.50916 29.5474V45.9296C6.50916 46.8349 5.66718 47.5941 4.66328 47.5941ZM1.78111 29.3138C1.65158 29.3138 1.52204 29.4306 1.52204 29.5474V45.9296C1.52204 46.0756 1.65158 46.1924 1.78111 46.1924H4.63089C4.76043 46.1924 4.88996 46.1048 4.88996 45.9296V29.5474C4.88996 29.4306 4.76043 29.3138 4.63089 29.3138H1.78111Z" fill="#3FC35F"/>
<path fill-rule="evenodd" clip-rule="evenodd" d="M18.167 46.8058C15.9649 46.8058 14.2486 46.3386 13.0827 45.8714C12.6617 45.6962 12.4998 45.2873 12.6617 44.9369C12.8561 44.5573 13.3094 44.4113 13.698 44.5573C15.5115 45.2873 18.5232 45.9006 22.8951 44.6741C23.2837 44.5573 23.737 44.7617 23.8666 45.1705C23.9961 45.5793 23.7694 45.9298 23.3484 46.0758C21.4054 46.6014 19.6567 46.8058 18.167 46.8058Z" fill="#3FC35F"/>
<path fill-rule="evenodd" clip-rule="evenodd" d="M29.0804 25.7806C28.6271 25.7806 28.2708 25.4594 28.2708 25.0506C28.2708 20.1447 29.6309 18.5386 30.7968 17.1077C31.6388 16.0856 32.3188 15.2972 32.3188 13.1071C32.3188 9.19403 28.8214 6.06944 24.5467 6.06944C20.272 6.06944 16.7746 9.25243 16.7746 13.1071C16.7746 15.2388 17.4546 16.0564 18.2966 17.1077C19.4624 18.5386 20.8225 20.1447 20.8225 25.0506C20.8225 25.4594 20.4663 25.7806 20.0129 25.7806C19.5596 25.7806 19.2357 25.4594 19.2357 25.0506C19.2357 20.6411 18.1023 19.2686 17.0336 17.9546C16.1269 16.8741 15.1877 15.7352 15.1877 13.1363C15.1877 8.46399 19.3653 4.69696 24.5467 4.69696C29.7281 4.69696 33.9056 8.46399 33.9056 13.1363C33.9056 15.7644 32.9665 16.9033 32.0597 17.9546C30.9911 19.2686 29.8576 20.6411 29.8576 25.0506C29.89 25.4594 29.5338 25.7806 29.0804 25.7806Z" fill="#3FC35F"/>
<path fill-rule="evenodd" clip-rule="evenodd" d="M19.1063 15.0052C18.653 15.0052 18.2968 14.684 18.2968 14.2751C18.2968 10.5665 21.6323 7.52954 25.7774 7.52954C26.1984 7.52954 26.5546 7.85076 26.5546 8.23038C26.5546 8.5808 26.1984 8.96043 25.7774 8.96043C22.539 8.96043 19.8836 11.355 19.8836 14.2751C19.8836 14.684 19.495 15.0052 19.1063 15.0052Z" fill="#3FC35F"/>
<path fill-rule="evenodd" clip-rule="evenodd" d="M24.5468 3.53341C24.0934 3.53341 23.7372 3.21219 23.7372 2.83257V0.700842C23.7372 0.292018 24.0934 0 24.5468 0C25.0002 0 25.3564 0.321219 25.3564 0.700842V2.83257C25.3564 3.21219 25.0002 3.53341 24.5468 3.53341Z" fill="#3FC35F"/>
<path fill-rule="evenodd" clip-rule="evenodd" d="M31.4769 5.19332C31.3474 5.19332 31.2178 5.13492 31.0559 5.10572C30.6997 4.9013 30.5701 4.49248 30.7644 4.14206L31.9303 2.27316C32.157 1.95194 32.6103 1.80593 32.9989 1.98114C33.3552 2.18555 33.4847 2.59438 33.3228 2.9448L32.157 4.8137C32.0274 5.07651 31.736 5.19332 31.4769 5.19332Z" fill="#3FC35F"/>
<path fill-rule="evenodd" clip-rule="evenodd" d="M36.464 9.77805C36.2049 9.77805 35.9134 9.66125 35.7839 9.39843C35.5572 9.07721 35.6868 8.63919 36.0754 8.43478L38.1155 7.32511C38.4718 7.1207 38.9899 7.26671 39.2166 7.58793C39.4433 7.90914 39.2814 8.34717 38.9251 8.55158L36.885 9.66125C36.723 9.71965 36.5935 9.77805 36.464 9.77805Z" fill="#3FC35F"/>
<path fill-rule="evenodd" clip-rule="evenodd" d="M17.7138 5.19324C17.4547 5.19324 17.1633 5.07643 17.0338 4.81361L15.8356 2.94469C15.6089 2.62347 15.7384 2.18544 16.0946 1.98103C16.4508 1.77661 16.9366 1.89342 17.1633 2.21464L18.3939 4.08356C18.6206 4.40478 18.491 4.87201 18.1024 5.07643C17.9729 5.19324 17.8434 5.19324 17.7138 5.19324Z" fill="#3FC35F"/>
<path fill-rule="evenodd" clip-rule="evenodd" d="M12.6295 9.77797C12.4999 9.77797 12.3704 9.71957 12.2409 9.69036L10.1683 8.5807C9.81207 8.37629 9.65015 7.93826 9.87683 7.61704C10.1035 7.29583 10.6217 7.17902 10.9779 7.38343L13.0505 8.46389C13.4067 8.66831 13.5362 9.10633 13.3095 9.45675C13.18 9.66116 12.8885 9.77797 12.6295 9.77797Z" fill="#3FC35F"/>
<path fill-rule="evenodd" clip-rule="evenodd" d="M30.1168 28.0582C29.6634 28.0582 29.3072 27.737 29.3072 27.3282C29.3072 26.9193 29.6634 26.5981 30.1168 26.5981C30.3111 26.5981 30.5378 26.4229 30.5378 26.1601C30.5378 25.9557 30.3435 25.6929 30.1168 25.6929H18.9768C18.7501 25.6929 18.5558 25.8973 18.5558 26.1601C18.5558 26.4229 18.7825 26.5981 18.9768 26.5981C19.4301 26.5981 19.7864 26.9193 19.7864 27.3282C19.7864 27.737 19.4301 28.0582 18.9768 28.0582C17.8757 28.0582 17.0013 27.2405 17.0013 26.1893C17.0013 25.1672 17.8757 24.3204 18.9768 24.3204H30.1168C31.2179 24.3204 32.0922 25.1672 32.0922 26.1893C32.0922 27.2405 31.2179 28.0582 30.1168 28.0582Z" fill="#3FC35F"/>
<path fill-rule="evenodd" clip-rule="evenodd" d="M30.0844 30.336H19.0739C17.9405 30.336 17.0013 29.5184 17.0013 28.4671C17.0013 27.4451 17.9405 26.5982 19.0739 26.5982H30.0844C31.2179 26.5982 32.157 27.4451 32.157 28.4671C32.0922 29.5184 31.2179 30.336 30.0844 30.336ZM19.0739 28.0583C18.8472 28.0583 18.5558 28.2627 18.5558 28.4963C18.5558 28.7883 18.7825 28.9635 19.0739 28.9635H30.0844C30.3111 28.9635 30.5702 28.7883 30.5702 28.4963C30.5702 28.2919 30.3435 28.0583 30.0844 28.0583H19.0739Z" fill="#3FC35F"/>
<path fill-rule="evenodd" clip-rule="evenodd" d="M25.4536 32.5845H23.6401C21.7942 32.5845 20.3046 31.2705 20.3046 29.606C20.3046 29.1971 20.6932 28.8759 21.1142 28.8759C21.5675 28.8759 21.9238 29.1971 21.9238 29.606C21.9238 30.4528 22.701 31.1829 23.7049 31.1829H25.486C26.4251 31.1829 27.2347 30.482 27.2347 29.606C27.2347 29.1971 27.5909 28.8759 28.0443 28.8759C28.4977 28.8759 28.8539 29.1971 28.8539 29.606C28.7891 31.2705 27.2995 32.5845 25.4536 32.5845Z" fill="#3FC35F"/>
<path fill-rule="evenodd" clip-rule="evenodd" d="M24.5467 25.7807C24.0933 25.7807 23.7371 25.4595 23.7371 25.0506V18.5679C23.7371 18.3343 23.8666 18.0715 24.1581 17.9546L26.9431 16.4946C27.2993 16.2902 27.785 16.407 28.0117 16.7574C28.2384 17.0786 28.1089 17.5166 27.7527 17.721L25.3563 18.9767V25.0506C25.3563 25.4595 25 25.7807 24.5467 25.7807Z" fill="#3FC35F"/>
<path fill-rule="evenodd" clip-rule="evenodd" d="M24.5467 19.2978C24.4172 19.2978 24.2877 19.2686 24.1581 19.2102L21.3407 17.7501C20.9845 17.5457 20.855 17.1076 21.0816 16.7864C21.3083 16.4652 21.7941 16.3484 22.1503 16.5528L24.9677 18.0129C25.3239 18.2173 25.4535 18.6553 25.2268 18.9765C25.0972 19.181 24.8058 19.2978 24.5467 19.2978Z" fill="#3FC35F"/>
</svg>
